<?xml version="1.0" encoding="UTF-8"?>
<svg width="32px" height="32px" viewBox="0 0 32 32" version="1.1" xmlns="http://www.w3.org/2000/svg" xmlns:xlink="http://www.w3.org/1999/xlink">
    <title>产品图标一32px</title>
    <g id="产品图标一32px" stroke="none" stroke-width="1" fill="none" fill-rule="evenodd">
        <g id="编组">
            <rect id="Rectangle-Copy" fill="#444444" opacity="0" x="0" y="0" width="32" height="32"></rect>
            <g id="_编组_" transform="translate(2.000000, 0.000000)" fill="#00A4FF" fill-rule="nonzero">
                <polygon id="Shape" points="26 22.84 14 29.7 2 22.84 2 9.16 14 2.3 26 9.16 26 9.14 28 8 14 0 0 8 0 24 14 32 28 24 28 12 26 13.14"></polygon>
            </g>
            <path d="M14.6158883,7.88358822 L8.650916,7.88358822 L5.4511347,12.7038998 L9.063,12.703 L5.64158697,19.6066439 L11.9371295,25.3977015 L21.1416,25.3977015 L25.938351,15 L20.667722,15 L18.145,20.342 L13.662,20.342 L11.62,18.529 L15.0506499,11.5416786 L14.6158883,7.88358822 Z M12.839,9.883 L12.994,11.191 L9.15357128,19.0154522 L12.9035914,22.3423491 L19.4126568,22.3423491 L21.934,16.999 L22.813,16.999 L19.861,23.397 L12.717,23.397 L8.099,19.15 L12.2874711,10.7038998 L9.179,10.703 L9.723,9.883 L12.839,9.883 Z" id="路径-26备份" fill="#00A4FF" fill-rule="nonzero"></path>
            <path d="M23.8519034,8.70276227 L17.3338065,8.70276227 L12.7179348,18.080461 L17.2765306,20.0748467 L20.421,13.564 L22.205796,13.5644992 L23.8519034,8.70276227 Z M21.063,10.702 L20.771,11.564 L19.1669325,11.5644992 L16.313,17.47 L15.436,17.086 L18.578,10.702 L21.063,10.702 Z" id="路径-27备份" fill="#00A4FF" fill-rule="nonzero"></path>
        </g>
    </g>
</svg>